<?xml version="1.0" standalone="no"?>
<svg xmlns="http://www.w3.org/2000/svg" viewBox="0 0 186.336 29" width="186.336" height="29"><g fill="#ead017" color="#ead017" transform="translate(0, 0) scale(0.453125)"><svg width="64.0" height="64.0" x="0.0" y="0.0" viewBox="0 0 64 64"><path d="M19,6.414l-2-2V0h2v3.586l2,2V8h-2V6.414z M23,8h2V4.586l-2-2V0h-2v3.414l2,2V8z M27,8h2V3.586l-2-2V0h-2v2.414l2,2V8z   M43,8h2V6.414l2-2V0h-2v3.586l-2,2V8z M39,8h2V5.414l2-2V0h-2v2.586l-2,2V8z M37,4.414l2-2V0h-2v1.586l-2,2V8h2V4.414z M33,0h-2v8  h2V0z M45,56h-2v2.414l2,2V64h2v-4.414l-2-2V56z M41,56h-2v3.414l2,2V64h2v-3.414l-2-2V56z M37,56h-2v4.414l2,2V64h2v-2.414l-2-2V56  z M21,56h-2v1.586l-2,2V64h2v-3.586l2-2V56z M25,56h-2v2.586l-2,2V64h2v-2.586l2-2V56z M27,59.586l-2,2V64h2v-1.586l2-2V56h-2  V59.586z M31,64h2v-8h-2V64z M8,45v-2H5.586l-2,2H0v2h4.414l2-2H8z M5.414,41H8v-2H4.586l-2,2H0v2h3.414L5.414,41z M4.414,37H8v-2  H3.586l-2,2H0v2h2.414L4.414,37z M5.586,21H8v-2H6.414l-2-2H0v2h3.586L5.586,21z M4.586,25H8v-2H5.414l-2-2H0v2h2.586L4.586,25z   M3.586,29H8v-2H4.414l-2-2H0v2h1.586L3.586,29z M8,31H0v2h8V31z M59.586,17l-2,2H56v2h2.414l2-2H64v-2H59.586z M58.586,23H56v2  h3.414l2-2H64v-2h-3.414L58.586,23z M59.586,27H56v2h4.414l2-2H64v-2h-2.414L59.586,27z M58.414,43H56v2h1.586l2,2H64v-2h-3.586  L58.414,43z M59.414,39H56v2h2.586l2,2H64v-2h-2.586L59.414,39z M60.414,35H56v2h3.586l2,2H64v-2h-1.586L60.414,35z M56,33h8v-2h-8  V33z M23,25h2v-2h-2V25z M27,25h2v-2h-2V25z M31,25h2v-2h-2V25z M35,25h2v-2h-2V25z M39,25h2v-2h-2V25z M23,29h2v-2h-2V29z M27,29h2  v-2h-2V29z M31,29h2v-2h-2V29z M35,29h2v-2h-2V29z M39,29h2v-2h-2V29z M23,33h2v-2h-2V33z M27,33h2v-2h-2V33z M31,33h2v-2h-2V33z   M35,33h2v-2h-2V33z M39,33h2v-2h-2V33z M23,37h2v-2h-2V37z M27,37h2v-2h-2V37z M31,37h2v-2h-2V37z M35,37h2v-2h-2V37z M39,37h2v-2  h-2V37z M23,41h2v-2h-2V41z M27,41h2v-2h-2V41z M31,41h2v-2h-2V41z M35,41h2v-2h-2V41z M39,41h2v-2h-2V41z M51,54H13  c-1.654,0-3-1.346-3-3V13c0-1.654,1.346-3,3-3h38c1.654,0,3,1.346,3,3v38C54,52.654,52.654,54,51,54z M52,13c0-0.551-0.448-1-1-1H13  c-0.551,0-1,0.449-1,1v38c0,0.552,0.449,1,1,1h38c0.552,0,1-0.448,1-1V13z M46,48h2v-2h-2V48z M16,16h32v28h-1c-1.654,0-3,1.346-3,3  v1H16V16z M18,46h24.101c0.398-1.956,1.943-3.501,3.899-3.899V18H18V46z M56,12h2V6h-6v2h4V12z M8,8h4V6H6v6h2V8z M8,52H6v6h6v-2H8  V52z M56,56h-4v2h6v-6h-2V56z"></path></svg></g><line x1="41" y1="1" x2="41" y2="28" stroke="#000000" stroke-linecap="round"></line><path fill="#000000" fill-rule="nonzero" d="M7.18 17.86L3.67 18.14L3.67 2.81L0 2.81L0.26 0L10.82 0L10.54 2.81L7.18 2.81L7.18 17.86ZM16.87 18.31Q14.47 18.31 13.20 16.40Q11.93 14.50 11.93 11.33L11.93 11.33Q11.93 8.11 13.22 6.22Q14.52 4.32 16.99 4.32L16.99 4.32Q19.34 4.32 20.59 6.22Q21.84 8.11 21.84 11.33L21.84 11.33Q21.84 11.52 21.77 11.60Q21.70 11.69 21.70 11.71L21.70 11.71L15.29 11.71Q15.29 13.27 15.70 14.56Q16.10 15.84 16.94 15.84L16.94 15.84Q17.88 15.84 18.34 14.76Q18.79 13.68 18.82 13.63L18.82 13.63L21.36 14.59Q20.86 16.32 19.75 17.32Q18.65 18.31 16.87 18.31L16.87 18.31ZM15.29 9.77L18.53 9.77Q18.53 8.33 18.14 7.49Q17.76 6.65 16.94 6.65L16.94 6.65Q16.54 6.65 16.15 7.06Q15.77 7.46 15.53 8.18Q15.29 8.90 15.29 9.77L15.29 9.77ZM28.06 18.31Q26.52 18.31 25.43 17.35Q24.34 16.39 23.78 14.81Q23.23 13.22 23.23 11.38L23.23 11.38Q23.23 9.55 23.77 7.94Q24.31 6.34 25.42 5.33Q26.52 4.32 28.13 4.32L28.13 4.32Q29.35 4.32 30.32 4.93Q31.30 5.54 31.85 6.65Q32.40 7.75 32.45 9.17L32.45 9.17L29.26 9.31Q29.26 9.22 29.17 8.54Q29.09 7.87 28.81 7.44Q28.54 7.01 28.10 7.01L28.10 7.01Q27.14 7.01 26.88 8.32Q26.62 9.62 26.62 11.26L26.62 11.26Q26.62 12.86 26.89 14.17Q27.17 15.48 28.20 15.48L28.20 15.48Q29.50 15.48 29.54 12.94L29.54 12.94L32.38 13.25Q32.06 15.74 31.13 17.03Q30.19 18.31 28.06 18.31L28.06 18.31ZM34.56 18.14L34.56 4.78L37.92 4.49L37.92 6.22Q38.95 5.30 39.95 4.81Q40.94 4.32 41.78 4.32L41.78 4.32Q43.06 4.32 43.86 5.24Q44.66 6.17 44.66 7.73L44.66 7.73L44.66 17.86L41.30 18.14L41.30 9Q41.30 7.20 40.08 7.20L40.08 7.20Q39.67 7.20 39.18 7.44Q38.69 7.68 37.92 8.14L37.92 8.14L37.92 17.86L34.56 18.14ZM51.89 18.31Q49.46 18.31 48.16 16.39Q46.85 14.47 46.85 11.28L46.85 11.28Q46.85 8.11 48.14 6.22Q49.44 4.32 51.89 4.32L51.89 4.32Q54.31 4.32 55.64 6.22Q56.98 8.11 56.98 11.28L56.98 11.28Q56.98 14.45 55.64 16.38Q54.31 18.31 51.89 18.31L51.89 18.31ZM51.89 15.82Q52.97 15.82 53.28 14.50Q53.59 13.18 53.59 11.26L53.59 11.26Q53.59 9.34 53.28 8.02Q52.97 6.70 51.89 6.70L51.89 6.70Q50.81 6.70 50.52 7.94Q50.23 9.19 50.23 10.99L50.23 10.99Q50.23 13.20 50.52 14.51Q50.81 15.82 51.89 15.82L51.89 15.82ZM81.02 17.86L77.38 18.14L77.38 4.63L74.02 18L71.86 18L68.23 4.58L68.23 17.86L65.33 18L65.33 0.17L70.49 0.02L73.46 11.16L76.32 0.43L81.02 0.14L81.02 17.86ZM86.38 18.31Q85.51 18.31 84.82 17.77Q84.12 17.23 83.74 16.31Q83.35 15.38 83.35 14.23L83.35 14.23Q83.35 11.62 85.14 10.55Q86.93 9.48 89.30 9.34L89.30 9.34Q89.30 8.04 89.14 7.42Q88.97 6.79 88.32 6.79L88.32 6.79Q87.77 6.79 87.48 7.22Q87.19 7.66 87.12 8.33L87.12 8.33L83.83 7.75Q84.07 5.90 85.34 5.11Q86.62 4.32 88.32 4.32L88.32 4.32Q90.50 4.32 91.60 5.47Q92.69 6.62 92.69 8.47L92.69 8.47L92.69 15.46Q92.69 16.58 93.05 17.86L93.05 17.86L89.76 18.14L89.38 16.49Q88.94 17.26 88.10 17.78Q87.26 18.31 86.38 18.31L86.38 18.31ZM87.94 15.91Q88.34 15.91 88.62 15.72Q88.90 15.53 89.30 15.10L89.30 15.10L89.30 11.35Q88.10 11.35 87.38 12Q86.66 12.65 86.66 14.02L86.66 14.02Q86.66 14.93 86.99 15.42Q87.31 15.91 87.94 15.91L87.94 15.91ZM95.47 18.14L95.47 4.78L98.83 4.49L98.83 6.67Q99.55 5.64 100.62 5.00Q101.69 4.37 103.34 4.37L103.34 4.37L103.34 7.66Q102.48 7.66 101.08 7.96Q99.67 8.26 98.83 9L98.83 9L98.83 17.86L95.47 18.14ZM115.34 17.30L112.37 18.31L109.63 11.59L108.53 13.06L108.53 18L105.17 18L105.17 0.43L108.53 0L108.53 8.93L111.96 4.49L115.61 4.49L111.82 9.36L115.34 17.30ZM121.46 18.31Q119.06 18.31 117.79 16.40Q116.52 14.50 116.52 11.33L116.52 11.33Q116.52 8.11 117.82 6.22Q119.11 4.32 121.58 4.32L121.58 4.32Q123.94 4.32 125.18 6.22Q126.43 8.11 126.43 11.33L126.43 11.33Q126.43 11.52 126.36 11.60Q126.29 11.69 126.29 11.71L126.29 11.71L119.88 11.71Q119.88 13.27 120.29 14.56Q120.70 15.84 121.54 15.84L121.54 15.84Q122.47 15.84 122.93 14.76Q123.38 13.68 123.41 13.63L123.41 13.63L125.95 14.59Q125.45 16.32 124.34 17.32Q123.24 18.31 121.46 18.31L121.46 18.31ZM119.88 9.77L123.12 9.77Q123.12 8.33 122.74 7.49Q122.35 6.65 121.54 6.65L121.54 6.65Q121.13 6.65 120.74 7.06Q120.36 7.46 120.12 8.18Q119.88 8.90 119.88 9.77L119.88 9.77ZM133.08 18.26Q131.45 18.26 130.32 17.44Q129.19 16.61 129.19 14.50L129.19 14.50L129.19 7.03L127.32 7.03L127.46 4.49L129.29 4.49L129.62 1.56L132.55 1.15L132.55 4.49L135.34 4.49L135.19 7.03L132.58 7.03L132.58 14.47Q132.58 15.19 132.94 15.50Q133.30 15.82 133.99 15.82L133.99 15.82Q134.38 15.82 135.29 15.67L135.29 15.67L135.29 18Q135.19 18.02 134.53 18.14Q133.87 18.26 133.08 18.26L133.08 18.26Z" transform="translate(51, 5.344)"></path></svg>